<?xml version="1.0" standalone="no"?>
<!DOCTYPE svg PUBLIC "-//W3C//DTD SVG 20010904//EN"
 "http://www.w3.org/TR/2001/REC-SVG-20010904/DTD/svg10.dtd">
<svg version="1.0" xmlns="http://www.w3.org/2000/svg"
 width="800.000000pt" height="270.000000pt" viewBox="485 355 45 252"
 preserveAspectRatio="xMidYMid meet">

<g transform="translate(0.000000,1000.000000) scale(0.100000,-0.100000)"
fill="#000000" stroke="none">
<path d="M6921 6439 c-44 -18 -82 -51 -104 -92 l-22 -42 -3 -1045 c-2 -741 1
-1060 9 -1098 14 -71 62 -125 130 -147 40 -14 81 -16 213 -13 159 3 164 4 202
30 21 15 50 44 64 65 l25 36 5 431 5 431 26 50 c31 59 112 129 166 144 139 39
279 -24 339 -154 22 -47 24 -62 24 -242 0 -106 3 -193 8 -193 4 1 36 23 71 49
135 103 328 109 458 15 27 -19 58 -41 71 -50 12 -9 25 -14 28 -11 3 3 5 113 5
245 -1 226 -3 245 -26 329 -63 217 -178 384 -347 500 -166 114 -287 153 -498
160 -108 4 -167 1 -231 -11 -47 -9 -88 -16 -91 -16 -4 0 -8 114 -10 254 l-3
254 -30 43 c-16 23 -50 53 -74 66 -41 22 -55 23 -215 22 -94 0 -182 -5 -195
-10z m382 -43 c43 -18 73 -53 86 -101 6 -24 11 -141 11 -291 l0 -252 73 20
c105 29 336 36 448 13 175 -35 325 -121 457 -260 65 -69 92 -107 132 -188 76
-155 90 -223 90 -459 0 -109 -4 -198 -9 -198 -5 0 -14 6 -20 14 -6 7 -39 26
-74 42 -48 22 -81 29 -150 32 -102 5 -156 -7 -244 -54 l-61 -33 -4 167 c-3
158 -5 170 -30 217 -99 189 -351 234 -502 89 -26 -25 -60 -71 -74 -102 l-27
-57 -5 -425 c-4 -316 -8 -431 -18 -447 -7 -12 -29 -35 -49 -50 -36 -28 -39
-28 -198 -31 -186 -4 -215 4 -269 71 l-31 39 -3 1026 c-2 565 0 1050 3 1079 8
63 38 112 85 135 29 15 63 18 193 18 111 0 167 -4 190 -14z"/>
<path d="M2293 5796 c-191 -37 -333 -112 -476 -253 -117 -116 -186 -238 -239
-418 -23 -79 -23 -89 -23 -540 0 -455 0 -460 22 -501 28 -52 72 -90 121 -104
48 -13 306 -13 354 0 45 13 93 51 116 94 15 27 18 80 23 451 6 474 7 478 82
554 67 68 109 86 202 86 92 0 135 -18 199 -82 72 -71 70 -60 76 -533 5 -414 6
-426 27 -466 28 -52 72 -90 121 -104 48 -13 306 -13 354 0 48 14 94 52 118
101 19 35 20 63 20 502 1 442 0 468 -21 548 -28 111 -105 268 -171 349 -114
138 -296 256 -468 301 -107 28 -328 35 -437 15z m434 -55 c97 -28 169 -61 245
-112 179 -121 298 -288 353 -492 25 -92 25 -94 25 -550 0 -501 2 -488 -60
-540 -41 -35 -71 -39 -242 -35 -129 3 -150 5 -174 24 -40 29 -64 65 -74 109
-5 21 -9 214 -9 429 l-1 391 -30 62 c-120 245 -450 242 -572 -5 l-33 -67 -3
-413 c-3 -452 -2 -445 -62 -495 -41 -35 -71 -39 -242 -35 -129 3 -150 5 -174
24 -40 29 -64 65 -74 109 -5 21 -9 221 -10 444 -1 405 -1 406 26 511 65 265
222 463 459 580 88 43 143 60 275 84 14 3 88 3 165 1 103 -2 159 -9 212 -24z"/>
<path d="M4215 5794 c-107 -21 -140 -30 -204 -56 -123 -49 -209 -106 -312
-208 -140 -138 -216 -279 -255 -470 -25 -126 -16 -325 21 -440 83 -260 255
-456 497 -569 331 -155 739 -92 1002 154 l40 37 20 -28 c178 -247 511 -334
780 -204 114 55 234 169 285 273 l19 39 7 -49 c14 -110 43 -173 109 -231 50
-44 82 -59 155 -72 141 -25 280 44 349 175 l27 50 3 438 c2 368 0 448 -13 500
-22 90 -107 255 -173 339 -64 80 -194 193 -263 228 -215 110 -515 131 -739 51
-158 -56 -267 -125 -383 -243 l-88 -90 -81 87 c-183 195 -416 296 -678 294
-58 -1 -114 -3 -125 -5z m295 -48 c213 -42 408 -161 530 -326 29 -39 56 -70
60 -70 5 0 25 22 45 49 19 28 69 81 110 119 211 197 507 281 796 226 309 -58
558 -292 653 -613 14 -46 16 -119 16 -480 l0 -426 -24 -50 c-45 -91 -101 -137
-200 -162 -56 -13 -75 -14 -120 -4 -113 25 -200 117 -215 227 -5 33 -6 125 -3
207 l5 147 -27 0 c-23 0 -26 -4 -26 -33 0 -188 -122 -387 -301 -491 -63 -36
-187 -66 -274 -66 -91 0 -211 30 -284 72 -81 47 -179 149 -224 235 -185 353
36 782 430 836 75 10 84 14 81 32 -4 27 -37 30 -128 11 -243 -51 -434 -240
-485 -481 -26 -124 -12 -272 36 -380 l22 -49 -58 -52 c-129 -115 -312 -195
-487 -214 -294 -30 -587 91 -776 320 -59 73 -142 234 -167 325 -25 91 -31 304
-11 401 72 356 358 634 714 694 78 13 233 11 312 -4z"/>
<path d="M8253 4640 c-91 -19 -178 -88 -224 -178 -20 -39 -24 -62 -24 -137 0
-78 4 -97 27 -140 32 -60 87 -114 148 -146 38 -20 60 -24 140 -24 80 0 102 4
138 23 66 35 119 88 149 150 37 76 39 191 5 268 -28 63 -102 136 -162 163 -54
23 -140 33 -197 21z m217 -83 c155 -103 174 -305 42 -429 -64 -60 -122 -81
-209 -76 -79 5 -126 25 -179 75 -126 124 -108 331 38 428 59 39 83 45 173 42
74 -3 85 -6 135 -40z"/>
</g>
</svg>
