<svg xmlns="http://www.w3.org/2000/svg" width="120" height="40" viewBox="0 0 120 40">
  <path d="M76.3,29.7c-8.7,6.4-21.3,9.8-32.2,9.8c-15.2,0-28.9-5.6-39.3-15c-0.8-0.7-0.1-1.7,0.9-1.1c11.3,6.5,25.2,10.5,39.6,10.5 c9.7,0,20.4-2,30.2-6.2C77.1,27,78.5,28,76.3,29.7z M79.7,25.8c-1.1-1.4-7.4-0.7-10.2-0.3c-0.9,0.1-1-0.6-0.2-1.2 c5-3.5,13.2-2.5,14.2-1.3c1,1.2-0.3,9.5-5,13.5c-0.7,0.6-1.4,0.3-1.1-0.5C78.4,32.7,80.8,27.2,79.7,25.8z M71.3,9.7V6.8 c0-0.5,0.4-0.9,0.9-0.9h16c0.5,0,0.9,0.4,0.9,0.9v2.5c0,0.5-0.4,1.2-1.2,2.3l-8.3,11.8c3.1-0.1,6.3,0.4,9.1,2 c0.6,0.3,0.8,0.9,0.8,1.4v3.1c0,0.5-0.6,1.1-1.1,0.8c-4.8-2.5-11.1-2.8-16.4,0c-0.5,0.3-1.1-0.3-1.1-0.8v-3c0-0.6,0-1.5,0.6-2.4 l9.6-13.7h-8.3C71.7,10.6,71.3,10.2,71.3,9.7z M25.3,29.6h-4.9c-0.5,0-0.8-0.4-0.9-0.8V6.9c0-0.5,0.4-0.9,0.9-0.9h4.5 c0.5,0,0.8,0.4,0.9,0.8v2.9h0.1c1.2-3.1,3.4-4.6,6.3-4.6c3,0,4.9,1.5,6.2,4.6c1.2-3.1,3.8-4.6,6.7-4.6c2,0,4.2,0.8,5.6,2.7 c1.5,2.1,1.2,5.1,1.2,7.7l0,13.2c0,0.5-0.4,0.9-0.9,0.9h-4.8c-0.5,0-0.8-0.4-0.9-0.9V17.6c0-1.1,0.1-3.9-0.1-5 c-0.4-1.8-1.6-2.3-3.1-2.3c-1.3,0-2.6,0.9-3.2,2.3c-0.6,1.4-0.5,3.7-0.5,5v11.1c0,0.5-0.4,0.9-0.9,0.9h-4.8 c-0.5,0-0.8-0.4-0.9-0.9V17.6c0-2.9,0.5-7.2-3.2-7.2c-3.7,0-3.6,4.2-3.6,7.2v11.1C26.1,29.2,25.7,29.6,25.3,29.6z M96.3,5.1 c7.1,0,11,6.1,11,13.9c0,7.5-4.3,13.5-11,13.5c-7,0-10.8-6.1-10.8-13.7C85.5,11.1,89.3,5.1,96.3,5.1z M96.3,10.7 c-3.6,0-3.8,4.8-3.8,7.8c0,3,0,9.4,3.7,9.4c3.7,0,3.9-5.2,3.9-8.3c0-2.1-0.1-4.6-0.7-6.5C98.8,11.4,97.7,10.7,96.3,10.7z M110.7,29.6h-4.8c-0.5,0-0.8-0.4-0.9-0.9V6.8c0-0.5,0.4-0.9,0.9-0.9h4.4c0.4,0,0.7,0.3,0.8,0.7v3.5h0.1 c1.3-3.4,3.2-5,6.5-5c2.1,0,4.2,0.8,5.6,2.9c1.2,2,1.2,5.3,1.2,7.7v15.5c-0.1,0.4-0.4,0.8-0.9,0.8h-4.8c-0.4,0-0.8-0.3-0.8-0.8 V17.3c0-2.9,0.3-7-3.2-7c-1.2,0-2.4,0.8-3,2.1c-0.7,1.5-0.8,3.1-0.8,5v11.3C111.5,29.2,111.1,29.6,110.7,29.6z" fill="#FF9900"/>
</svg>
