<svg xmlns="http://www.w3.org/2000/svg" width="120" height="40" viewBox="0 0 120 40">
  <path d="M48.6,17.8c0,7-5.4,12.1-12,12.1s-12-5.1-12-12.1c0-7,5.4-12.1,12-12.1S48.6,10.7,48.6,17.8z M39.1,17.8 c0-4.4-3.2-7.4-6.5-7.4s-6.5,3-6.5,7.4c0,4.4,3.2,7.4,6.5,7.4S39.1,22.2,39.1,17.8z M71.5,5.9v22.9h-6.8v-2.1h-0.2 c-1.2,1.8-3.6,3-6.5,3c-6.1,0-10.7-5.3-10.7-12.1c0-6.8,4.6-12.1,10.7-12.1c2.8,0,5.2,1.2,6.5,3h0.2V5.9H71.5z M64.8,17.6 c0-4.2-2.8-7.1-6.3-7.1c-3.6,0-6.5,3-6.5,7.1c0,4.2,2.9,7.1,6.5,7.1C62,24.8,64.8,21.8,64.8,17.6z M73.9,0.9h6.8v27.9h-6.8V0.9z M97.5,23.7c-1.8,3.8-5.8,6.2-10.6,6.2c-6.5,0-11.6-4.9-11.6-12.1c0-7,5.2-12.1,11.3-12.1c6.9,0,10.9,5.1,10.9,12.1 c0,1-0.1,1.9-0.2,2.5H82.1c0.5,3,2.8,4.8,5.5,4.8c2.4,0,4-1.2,4.9-2.9L97.5,23.7z M91.6,15.7c-0.1-2.4-2.3-4.3-4.8-4.3 c-2.6,0-4.5,1.8-4.7,4.3H91.6z" fill="#5F6368"/>
</svg>
