<svg xmlns="http://www.w3.org/2000/svg" width="120" height="40" viewBox="0 0 120 40">
  <path d="M60,20c-11,0-20,9-20,20s9,20,20,20s20-9,20-20S71,20,60,20z M69.7,50c-0.4,0.6-1.1,0.8-1.7,0.4 c-4.7-2.9-10.7-3.5-17.8-1.9c-0.7,0.2-1.4-0.3-1.5-1c-0.2-0.7,0.3-1.4,1-1.5c7.7-1.8,14.3-1,19.6,2.3C69.9,48.7,70.1,49.4,69.7,50z M72.2,44.5c-0.5,0.7-1.4,1-2.1,0.5c-5.4-3.3-13.6-4.3-20-2.3c-0.8,0.2-1.7-0.2-2-1c-0.2-0.8,0.2-1.7,1-2 c7.3-2.2,16.4-1.1,22.5,2.7C72.4,42.9,72.7,43.8,72.2,44.5z M72.4,38.8c-6.5-3.9-17.2-4.2-23.4-2.3c-1,0.3-2.1-0.2-2.4-1.2 s0.2-2.1,1.2-2.4c7.1-2.1,18.8-1.7,26.2,2.7c0.9,0.5,1.2,1.7,0.7,2.6C74.1,39,73,39.3,72.4,38.8z" fill="#1DB954"/>
</svg>
