<svg xmlns="http://www.w3.org/2000/svg" width="120" height="40" viewBox="0 0 120 40">
  <path d="M60,0C26.9,0,0,8.9,0,20s26.9,20,60,20s60-8.9,60-20S93.1,0,60,0z M30,25h-5V15h5V25z M27.5,13.8 c-1.4,0-2.5-1.1-2.5-2.5s1.1-2.5,2.5-2.5s2.5,1.1,2.5,2.5S28.9,13.8,27.5,13.8z M47.5,25h-5v-5.8c0-2.4-0.9-3.3-2.5-3.3 c-1.9,0-2.5,1.3-2.5,3.3V25h-5V15h4.8v1.9c0.6-1.2,2.3-2.3,4.7-2.3c3.5,0,5.5,2.1,5.5,6.2V25z M65,25h-5v-1.8 c-0.8,1.3-2.2,2.1-4.3,2.1c-3.4,0-5.7-2.9-5.7-5.7c0-2.8,2.3-5.7,5.7-5.7c2.1,0,3.5,0.8,4.3,2.1V15h5V25z M64.1,19.7 c0-1.4-1.1-2.7-2.9-2.7s-2.9,1.3-2.9,2.7c0,1.4,1.1,2.7,2.9,2.7S64.1,21.1,64.1,19.7z M80,17.9h-8c0.3-1.4,1.4-2.3,3.1-2.3 C77,15.6,79.7,16,80,17.9z M80,21.6c-0.8,1.2-2.4,1.9-4.4,1.9c-3.3,0-5.6-1.9-5.9-4.6h10.3c0.1-0.4,0.1-0.8,0.1-1.2 c0-3.7-3.2-6.1-6.9-6.1c-4.2,0-7.1,3-7.1,6.7c0,3.7,3.1,6.7,7.5,6.7c3,0,5.2-1.3,6.4-3.4L80,21.6z M95,25h-5v-1.8 c-0.8,1.3-2.2,2.1-4.3,2.1c-3.4,0-5.7-2.9-5.7-5.7c0-2.8,2.3-5.7,5.7-5.7c2.1,0,3.5,0.8,4.3,2.1V15h5V25z M94.1,19.7 c0-1.4-1.1-2.7-2.9-2.7s-2.9,1.3-2.9,2.7c0,1.4,1.1,2.7,2.9,2.7S94.1,21.1,94.1,19.7z" fill="#000000"/>
</svg>
