<svg xmlns="http://www.w3.org/2000/svg" width="120" height="40" viewBox="0 0 120 40">
  <path d="M60,5.7c-7.8,0-14.1,6.3-14.1,14.1c0,7.8,6.3,14.1,14.1,14.1s14.1-6.3,14.1-14.1C74.1,12,67.8,5.7,60,5.7z M65.2,26.1 l-2.1-8.8h-0.1l-2.2,8.8h-2.1l-3-12.3h2.3l1.9,9h0.1l2.1-9h2l2.2,9h0.1l1.9-9h2.2l-3,12.3H65.2z M41.9,26.1l-1.3-3.4h-5l-1.3,3.4 h-2.5l5.2-12.3h2.1l5.2,12.3H41.9z M38.2,16.9l-1.8,4.3h3.6L38.2,16.9z M25.8,26.1v-12h2.3v10.1h5.3v1.9H25.8z M87.9,26.1v-12h7.6 v1.9h-5.3v3.1h4.5v1.9h-4.5v3.3h5.3v1.9H87.9z M80.8,26.1v-12h2.3v12H80.8z" fill="#0071CE"/>
</svg>
